<?xml version="1.0" encoding="utf-8"?>
<!-- Generator: Adobe Illustrator 22.0.0, SVG Export Plug-In . SVG Version: 6.00 Build 0)  -->
<svg version="1.1" id="Layer_1" xmlns="http://www.w3.org/2000/svg" xmlns:xlink="http://www.w3.org/1999/xlink" x="0px" y="0px"
	 viewBox="0 0 200 100" style="enable-background:new 0 0 200 100;" xml:space="preserve">
<style type="text/css">
	.st0{fill:#F7931E;}
	.st1{fill:#FFFFFF;}
	.st2{fill:#0071BC;}
</style>
<g>
	<g>
		<polygon class="st0" points="53.1,62.7 45,56.8 37,62.7 40,53.2 32,47.3 42,47.3 45,37.8 48.1,47.3 58.1,47.3 50,53.2 		"/>
	</g>
	<g>
		<polygon class="st0" points="82.1,62.4 74,56.5 66,62.4 69,52.9 61,47 71,47 74,37.5 77.1,47 87.1,47 79,52.9 		"/>
	</g>
	<g>
		<polygon class="st0" points="111.1,62.4 103,56.5 95,62.4 98,52.9 90,47 100,47 103,37.5 106.1,47 116.1,47 108,52.9 		"/>
	</g>
	<g>
		<polygon class="st1" points="156.1,52.9 148,47 158,47 161.1,37.5 164.1,47 174.1,47 166,52.9 169.1,62.3 161.1,56.5 152.9,62.4 
					"/>
		<path class="st2" d="M161,37.7l3,9.4l0,0h0h9.8l-8,5.8l0,0l0,0l3,9.4l-8-5.8l0,0l0,0l-8,5.8l3-9.4l0,0l0,0l-8-5.8h9.8h0l0,0
			L161,37.7 M161,37.5L158,47h-10l8.1,5.9l-3.1,9.5l8.1-5.9l8.1,5.9l-3.1-9.5l8.1-5.9h-10L161,37.5L161,37.5z"/>
	</g>
	<g>
		<g>
			<polygon class="st1" points="132.1,56.5 132,37.6 132.1,37.5 135.1,47 145,47 137,52.9 140.1,62.3 			"/>
			<path class="st2" d="M132.1,37.7l3,9.3l0,0h0h9.8v0l-7.9,5.8l0,0l0,0l3,9.4l-8-5.8l0,0V37.7 M132,37.5l0,0.1v18.9l0,0l8.1,5.9
				l-3.1-9.5l8-5.8V47h-9.9L132,37.5L132,37.5z"/>
		</g>
		<g>
			<polygon class="st0" points="129,47 132,37.6 132,56.5 124,62.4 127,52.9 119,47 			"/>
		</g>
	</g>
</g>
<g>
	<polygon class="st0" points="117.1,44 117,44.1 117,44 	"/>
</g>
</svg>
